<?xml version="1.0" encoding="utf-8"?>
<svg xmlns="http://www.w3.org/2000/svg" width="574" height="259" viewBox="0 0 574 259" fill="none">
<g clip-path="url(#clip0_314_53)">
<g clip-path="url(#clip1_314_53)">
<path d="M157.145 107.772C227.738 121.435 249.65 186.786 250.227 252.515C250.24 253.994 249.046 255.2 247.567 255.2H158.705C157.239 255.2 156.045 254.017 156.037 252.548C155.77 201.554 147.508 156.553 96.9797 154.61C95.4723 154.553 94.2162 155.76 94.2162 157.27V252.541C94.2162 254.009 93.0248 255.2 91.5562 255.2H2.67519C1.20666 255.2 0.0152588 254.012 0.0152588 252.541V9.78761C0.0152588 8.31908 1.20666 7.12768 2.67519 7.12768H91.5562C93.0248 7.12768 94.2162 8.31908 94.2162 9.78761V100.723C94.2162 102.072 95.3091 103.165 96.6585 103.165C97.7282 103.165 98.6787 102.468 98.9895 101.443C121.885 26.4543 164.643 7.59906 234.076 7.13545C235.55 7.12509 236.757 8.32167 236.757 9.79538V100.505C236.757 101.973 235.565 103.165 234.097 103.165H157.591C156.306 103.165 155.265 104.206 155.265 105.491C155.265 106.604 156.055 107.563 157.145 107.772ZM400.471 164.618V105.825C400.471 104.356 401.662 103.165 403.131 103.165H468.536C469.823 103.165 470.867 102.121 470.867 100.834C470.867 99.7176 470.072 98.7619 468.976 98.5469C417.803 88.3967 394.18 58.938 393.364 9.7902C393.34 8.32944 394.514 7.12768 395.972 7.12768H492.012C493.48 7.12768 494.672 8.31908 494.672 9.78761V51.1914C494.672 52.6599 495.863 53.8513 497.332 53.8513H552.4C553.869 53.8513 555.06 55.0427 555.06 56.5112V100.505C555.06 101.973 553.869 103.165 552.4 103.165H497.332C495.863 103.165 494.672 104.356 494.672 105.825V153.248C494.672 170.002 504.944 175.527 518.603 175.527C540.01 175.527 561.126 165.882 569.595 161.51C571.367 160.596 573.472 161.883 573.472 163.874V237.7C573.472 239.671 572.385 241.484 570.639 242.403C562.278 246.801 536.43 258.995 506.86 258.995C446.047 259 400.471 234.209 400.471 164.618ZM275.451 252.541V105.82C275.451 104.351 276.643 103.16 278.111 103.16H366.992C368.461 103.16 369.652 104.351 369.652 105.82V252.541C369.652 254.009 368.461 255.2 366.992 255.2H278.111C276.643 255.2 275.451 254.012 275.451 252.541ZM270.419 45.2188C270.419 70.1916 288.054 90.4376 321.937 90.4376C355.819 90.4376 373.454 70.1916 373.454 45.2188C373.454 20.246 355.817 0 321.937 0C288.054 0 270.419 20.246 270.419 45.2188Z" fill="#F9F7F4"/>
</g>
</g>
<defs>
<clipPath id="clip0_314_53">
<rect width="573.457" height="259" fill="white"/>
</clipPath>
<clipPath id="clip1_314_53">
<rect width="573.685" height="259" fill="white" transform="translate(0.0152588)"/>
</clipPath>
</defs>
</svg>